REM DIRINDEX 1\2,1\3,1\4,1\5
REM DIRNAME folder01,folder02,folder03,folder04,folder05
TITLE ""
FILE "Round-08-182-183.mp3" MP3
  TRACK 01 AUDIO
    TITLE "0:"
    INDEX 01 00:00:00
  TRACK 02 AUDIO
    TITLE "2:cjc093_2014"
    INDEX 01 00:00:01
  TRACK 03 AUDIO
    TITLE "0:"
    INDEX 01 00:01:19
  TRACK 04 AUDIO
    TITLE "3:cjc093_2015"
    INDEX 01 00:01:56
  TRACK 05 AUDIO
    TITLE "0:"
    INDEX 01 00:03:41
  TRACK 06 AUDIO
    TITLE "4:cjc093_2016"
    INDEX 01 00:03:68
  TRACK 07 AUDIO
    TITLE "0:"
    INDEX 01 00:06:33
  TRACK 08 AUDIO
    TITLE "2:cjc093_2017"
    INDEX 01 00:07:45
  TRACK 09 AUDIO
    TITLE "0:"
    INDEX 01 00:08:60
  TRACK 10 AUDIO
    TITLE "3:cjc093_2018"
    INDEX 01 00:09:28
  TRACK 11 AUDIO
    TITLE "0:"
    INDEX 01 00:10:68
  TRACK 12 AUDIO
    TITLE "4:cjc093_2019"
    INDEX 01 00:11:07
  TRACK 13 AUDIO
    TITLE "0:"
    INDEX 01 00:14:33
  TRACK 14 AUDIO
    TITLE "3:cjc093_2020"
    INDEX 01 00:15:44
  TRACK 15 AUDIO
    TITLE "0:"
    INDEX 01 00:17:61
  TRACK 16 AUDIO
    TITLE "4:cjc093_2021"
    INDEX 01 00:18:19
  TRACK 17 AUDIO
    TITLE "0:"
    INDEX 01 00:21:74
  TRACK 18 AUDIO
    TITLE "2:cjc093_2022"
    INDEX 01 00:23:06
  TRACK 19 AUDIO
    TITLE "0:"
    INDEX 01 00:24:33
  TRACK 20 AUDIO
    TITLE "3:cjc093_2023"
    INDEX 01 00:25:01
  TRACK 21 AUDIO
    TITLE "0:"
    INDEX 01 00:26:30
  TRACK 22 AUDIO
    TITLE "4:cjc093_2024"
    INDEX 01 00:26:58
  TRACK 23 AUDIO
    TITLE "0:"
    INDEX 01 00:30:20
  TRACK 24 AUDIO
    TITLE "2:cjc093_2025"
    INDEX 01 00:31:29
  TRACK 25 AUDIO
    TITLE "0:"
    INDEX 01 00:32:31
  TRACK 26 AUDIO
    TITLE "2:cjc093_2026"
    INDEX 01 00:32:66
  TRACK 27 AUDIO
    TITLE "0:"
    INDEX 01 00:35:37
  TRACK 28 AUDIO
    TITLE "3:cjc093_2027"
    INDEX 01 00:35:72
  TRACK 29 AUDIO
    TITLE "0:"
    INDEX 01 00:39:00
  TRACK 30 AUDIO
    TITLE "4:cjc093_2028"
    INDEX 01 00:39:29
  TRACK 31 AUDIO
    TITLE "0:"
    INDEX 01 00:42:35
  TRACK 32 AUDIO
    TITLE "3:cjc093_2029"
    INDEX 01 00:43:44
  TRACK 33 AUDIO
    TITLE "0:"
    INDEX 01 00:45:08
  TRACK 34 AUDIO
    TITLE "4:cjc093_2030"
    INDEX 01 00:45:35
  TRACK 35 AUDIO
    TITLE "0:"
    INDEX 01 00:48:20
  TRACK 36 AUDIO
    TITLE "2:cjc093_2031"
    INDEX 01 00:49:33
  TRACK 37 AUDIO
    TITLE "0:"
    INDEX 01 00:50:44
  TRACK 38 AUDIO
    TITLE "3:cjc093_2032"
    INDEX 01 00:51:07
  TRACK 39 AUDIO
    TITLE "0:"
    INDEX 01 00:53:58
  TRACK 40 AUDIO
    TITLE "4:cjc093_2033"
    INDEX 01 00:53:68
  TRACK 41 AUDIO
    TITLE "0:"
    INDEX 01 00:56:25
  TRACK 42 AUDIO
    TITLE "2:cjc093_2034"
    INDEX 01 00:57:37
  TRACK 43 AUDIO
    TITLE "0:"
    INDEX 01 00:58:32
  TRACK 44 AUDIO
    TITLE "3:cjc093_2035"
    INDEX 01 00:59:04
  TRACK 45 AUDIO
    TITLE "0:"
    INDEX 01 01:00:31
  TRACK 46 AUDIO
    TITLE "4:cjc093_2036"
    INDEX 01 01:00:68
  TRACK 47 AUDIO
    TITLE "0:"
    INDEX 01 01:04:35
  TRACK 48 AUDIO
    TITLE "2:cjc093_2037"
    INDEX 01 01:05:50
  TRACK 49 AUDIO
    TITLE "0:"
    INDEX 01 01:06:53
  TRACK 50 AUDIO
    TITLE "3:cjc093_2038"
    INDEX 01 01:07:02
  TRACK 51 AUDIO
    TITLE "0:"
    INDEX 01 01:08:15
  TRACK 52 AUDIO
    TITLE "4:cjc093_2039"
    INDEX 01 01:08:62
  TRACK 53 AUDIO
    TITLE "0:"
    INDEX 01 01:13:36
  TRACK 54 AUDIO
    TITLE "3:cjc093_2040"
    INDEX 01 01:14:51
  TRACK 55 AUDIO
    TITLE "0:"
    INDEX 01 01:15:54
  TRACK 56 AUDIO
    TITLE "4:cjc093_2041"
    INDEX 01 01:15:72
  TRACK 57 AUDIO
    TITLE "0:"
    INDEX 01 01:18:49
  TRACK 58 AUDIO
    TITLE "2:cjc093_2042"
    INDEX 01 01:19:62
  TRACK 59 AUDIO
    TITLE "0:"
    INDEX 01 01:20:63
  TRACK 60 AUDIO
    TITLE "3:cjc093_2043"
    INDEX 01 01:21:21
  TRACK 61 AUDIO
    TITLE "0:"
    INDEX 01 01:22:44
  TRACK 62 AUDIO
    TITLE "4:cjc093_2044"
    INDEX 01 01:23:01
  TRACK 63 AUDIO
    TITLE "0:"
    INDEX 01 01:25:51
  TRACK 64 AUDIO
    TITLE "2:cjc093_2045"
    INDEX 01 01:26:66
  TRACK 65 AUDIO
    TITLE "0:"
    INDEX 01 01:28:00
  TRACK 66 AUDIO
    TITLE "3:cjc093_2046"
    INDEX 01 01:28:33
  TRACK 67 AUDIO
    TITLE "0:"
    INDEX 01 01:30:24
  TRACK 68 AUDIO
    TITLE "4:cjc093_2047"
    INDEX 01 01:30:48
  TRACK 69 AUDIO
    TITLE "0:"
    INDEX 01 01:35:61
